# xmcd CD database file
#
# Track frame offsets:
#	183
#	19183
#	40708
#	57020
#	71720
#	89420
#	105733
#	120808
#	131658
#	146433
#	160133
#	177358
#	196495
#
# Disc length: 2949 seconds
#
# Revision: 3
# Processed by: cddbd v1.5.2PL0 Copyright (c) Steve Scherf et al.
# Submitted via: CDex 1.51
#
DISCID=ac0b830d
DTITLE=Claude Nougaro - Chansongs
DYEAR=1993
DGENRE=Chanson française
TTITLE0=Vie violence
TTITLE1=C'est une Garonne
TTITLE2=Ça tourne
TTITLE3=Daligala
TTITLE4=Les points
TTITLE5=Façon Chaplin
TTITLE6=Tchin-Chine
TTITLE7=Art mineur
TTITLE8=L'irlandaise
TTITLE9=Rock à Renaud
TTITLE10=Prisonnier des nuages
TTITLE11=Rap idyllique
TTITLE12=À coeur perdu
EXTD=YEAR: 1993
EXTT0=
EXTT1=
EXTT2=
EXTT3=
EXTT4=
EXTT5=
EXTT6=
EXTT7=
EXTT8=
EXTT9=
EXTT10=
EXTT11=
EXTT12=
PLAYORDER=
